<svg width="32" height="33" viewBox="0 0 32 33" fill="none" xmlns="http://www.w3.org/2000/svg">
<path d="M30 26.8092H28V17.8092L28.2925 18.1017C28.4805 18.2893 28.7353 18.3946 29.0009 18.3944C29.2665 18.3941 29.5211 18.2884 29.7087 18.1004C29.8964 17.9124 30.0017 17.6576 30.0014 17.392C30.0012 17.1264 29.8955 16.8718 29.7075 16.6842L17.4137 4.39416C17.0387 4.01937 16.5302 3.80884 16 3.80884C15.4698 3.80884 14.9613 4.01937 14.5863 4.39416L2.2925 16.6842C2.10503 16.8718 1.99977 17.1262 1.99989 17.3915C2 17.6567 2.10548 17.9111 2.29312 18.0985C2.48077 18.286 2.7352 18.3913 3.00044 18.3912C3.26569 18.391 3.52003 18.2856 3.7075 18.0979L4 17.8092V26.8092H2C1.73478 26.8092 1.48043 26.9145 1.29289 27.1021C1.10536 27.2896 1 27.5439 1 27.8092C1 28.0744 1.10536 28.3287 1.29289 28.5163C1.48043 28.7038 1.73478 28.8092 2 28.8092H30C30.2652 28.8092 30.5196 28.7038 30.7071 28.5163C30.8946 28.3287 31 28.0744 31 27.8092C31 27.5439 30.8946 27.2896 30.7071 27.1021C30.5196 26.9145 30.2652 26.8092 30 26.8092ZM6 15.8092L16 5.80916L26 15.8092V26.8092H20V19.8092C20 19.5439 19.8946 19.2896 19.7071 19.1021C19.5196 18.9145 19.2652 18.8092 19 18.8092H13C12.7348 18.8092 12.4804 18.9145 12.2929 19.1021C12.1054 19.2896 12 19.5439 12 19.8092V26.8092H6V15.8092ZM18 26.8092H14V20.8092H18V26.8092Z" fill="url(#paint0_linear_9768_1056)"/>
<defs>
<linearGradient id="paint0_linear_9768_1056" x1="0.4" y1="8.39223" x2="38.2416" y2="12.7374" gradientUnits="userSpaceOnUse">
<stop stop-color="#D86C2C"/>
<stop offset="0.859156" stop-color="#F3A46B"/>
</linearGradient>
</defs>
</svg>
