<svg width="61" height="61" viewBox="0 0 61 61" fill="none" xmlns="http://www.w3.org/2000/svg">
<g clip-path="url(#clip0_9767_851)">
<path d="M59.5086 17.9185C59.2096 17.7582 58.8727 17.6821 58.5338 17.6981C58.195 17.7142 57.8668 17.822 57.5844 18.0099L49.25 23.5552V17.6841C49.25 16.6895 48.8549 15.7357 48.1516 15.0324C47.4484 14.3292 46.4946 13.9341 45.5 13.9341H8C7.00544 13.9341 6.05161 14.3292 5.34835 15.0324C4.64509 15.7357 4.25 16.6895 4.25 17.6841V43.9341C4.25 44.9286 4.64509 45.8825 5.34835 46.5857C6.05161 47.289 7.00544 47.6841 8 47.6841H45.5C46.4946 47.6841 47.4484 47.289 48.1516 46.5857C48.8549 45.8825 49.25 44.9286 49.25 43.9341V38.0747L57.5844 43.6317C57.8939 43.8327 58.2559 43.9379 58.625 43.9341C59.1223 43.9341 59.5992 43.7365 59.9508 43.3849C60.3025 43.0333 60.5 42.5564 60.5 42.0591V19.5591C60.4976 19.2217 60.4043 18.8912 60.2298 18.6025C60.0553 18.3138 59.8062 18.0774 59.5086 17.9185ZM45.5 43.9341H8V17.6841H45.5V43.9341ZM56.75 38.5552L49.25 33.556V28.0622L56.75 23.0747V38.5552Z" fill="url(#paint0_linear_9767_851)"/>
</g>
<defs>
<linearGradient id="paint0_linear_9767_851" x1="3.125" y1="20.1216" x2="73.2304" y2="31.3022" gradientUnits="userSpaceOnUse">
<stop stop-color="#D86C2C"/>
<stop offset="0.859156" stop-color="#F3A46B"/>
</linearGradient>
<clipPath id="clip0_9767_851">
<rect width="60" height="60" fill="white" transform="translate(0.5 0.809082)"/>
</clipPath>
</defs>
</svg>
