<svg width="61" height="61" viewBox="0 0 61 61" fill="none" xmlns="http://www.w3.org/2000/svg">
<g clip-path="url(#clip0_9767_859)">
<path d="M50.8186 49.9575C50.8114 49.9374 50.8028 49.9178 50.7928 49.8989L40.1334 27.1974L44.9381 19.6552C44.9475 19.6416 44.9561 19.6276 44.9639 19.613C45.3134 19.0303 45.498 18.3636 45.498 17.6841C45.498 17.0046 45.3134 16.3379 44.9639 15.7552C44.9428 15.7177 44.917 15.6802 44.8936 15.645L39.8732 8.47314V2.68408C39.8732 2.1868 39.6757 1.70989 39.3241 1.35826C38.9724 1.00663 38.4955 0.809082 37.9982 0.809082C37.501 0.809082 37.0241 1.00663 36.6724 1.35826C36.3208 1.70989 36.1232 2.1868 36.1232 2.68408V8.40752L34.8904 9.94971C34.3635 10.6084 33.6951 11.1401 32.9348 11.5054C32.1745 11.8708 31.3418 12.0605 30.4982 12.0605C29.6547 12.0605 28.822 11.8708 28.0617 11.5054C27.3014 11.1401 26.633 10.6084 26.1061 9.94971L24.8732 8.40752V2.68408C24.8732 2.1868 24.6757 1.70989 24.3241 1.35826C23.9724 1.00663 23.4955 0.809082 22.9982 0.809082C22.501 0.809082 22.0241 1.00663 21.6724 1.35826C21.3208 1.70989 21.1232 2.1868 21.1232 2.68408V8.47314L16.1029 15.645C16.0795 15.6802 16.0537 15.7177 16.0326 15.7552C15.6831 16.3379 15.4985 17.0046 15.4985 17.6841C15.4985 18.3636 15.6831 19.0303 16.0326 19.613C16.0404 19.6276 16.049 19.6416 16.0584 19.6552L20.8631 27.1974L10.2037 49.8989C10.1937 49.9178 10.1851 49.9374 10.1779 49.9575C9.93367 50.5278 9.83469 51.1497 9.88986 51.7676C9.94503 52.3855 10.1526 52.98 10.4941 53.498C10.8355 54.0159 11.3001 54.4411 11.8462 54.7353C12.3923 55.0296 13.0029 55.1838 13.6232 55.1841H47.3732C47.9938 55.1842 48.6047 55.0303 49.1511 54.7362C49.6975 54.4421 50.1624 54.017 50.5041 53.499C50.8458 52.981 51.0536 52.3862 51.1089 51.7682C51.1642 51.1501 51.0652 50.5279 50.8209 49.9575H50.8186ZM19.2482 17.6841L23.099 12.1927L23.1764 12.2911C24.0547 13.3894 25.1688 14.2761 26.4362 14.8854C27.7037 15.4948 29.0919 15.8111 30.4982 15.8111C31.9046 15.8111 33.2928 15.4948 34.5603 14.8854C35.8277 14.2761 36.9418 13.3894 37.8201 12.2911L37.8975 12.1927L41.7482 17.6841L36.9717 25.1841H24.0272L19.2482 17.6841ZM13.6232 51.4341L24.1865 28.9341H36.8053L47.3732 51.4341H13.6232Z" fill="url(#paint0_linear_9767_859)"/>
</g>
<defs>
<linearGradient id="paint0_linear_9767_859" x1="9.05002" y1="10.7778" x2="61.4904" y2="14.5845" gradientUnits="userSpaceOnUse">
<stop stop-color="#D86C2C"/>
<stop offset="0.859156" stop-color="#F3A46B"/>
</linearGradient>
<clipPath id="clip0_9767_859">
<rect width="60" height="60" fill="white" transform="translate(0.5 0.809082)"/>
</clipPath>
</defs>
</svg>
